<svg xmlns="http://www.w3.org/2000/svg" viewBox="0 0 84 52"><g fill="#757575" fill-rule="nonzero" stroke="#FFF" stroke-width="4"><path d="M25.288 29C16.898 29 10 23.03 10 15.5S16.898 2 25.288 2c8.389 0 15.287 5.97 15.287 13.5S33.677 29 25.287 29z"/><path d="M32.7 27C40.563 27 47 32.966 47 40.4v2.85c0 3.762-3.224 6.75-7.125 6.75H9.125C5.224 50 2 47.012 2 43.25V40.4C2 32.966 8.437 27 16.3 27h1.31l.387.172c2.088.926 4.268 1.411 6.503 1.411 2.239 0 4.43-.487 6.5-1.41l.388-.173H32.7zM61.288 29C52.898 29 46 23.03 46 15.5S52.898 2 61.288 2c8.389 0 15.287 5.97 15.287 13.5S69.677 29 61.287 29z"/><path d="M68.3 27C75.852 27 82 32.99 82 40.4v2.85c0 3.739-3.09 6.75-6.875 6.75h-29.25C42.09 50 39 46.989 39 43.25V40.4C39 32.99 45.148 27 52.7 27h1.286l.402.187c1.965.917 4.013 1.396 6.112 1.396 2.102 0 4.16-.481 6.109-1.394l.403-.189H68.3z"/></g></svg>