<svg xmlns="http://www.w3.org/2000/svg" viewBox="0 0 127 76"><g fill-rule="nonzero" stroke="#FFF"><path d="M45 43c-11.065 0-20-9.183-20-20.5S33.935 2 45 2s20 9.183 20 20.5S56.065 43 45 43z" stroke-width="4"/><path d="M57.4 39C68.773 39 78 48.227 78 59.6v4.65c0 5.383-4.367 9.75-9.75 9.75h-46.5C16.367 74 12 69.633 12 64.25V59.6C12 48.227 21.227 39 32.6 39h1.794l.41.196c3.271 1.565 6.69 2.387 10.196 2.387 3.512 0 6.947-.825 10.193-2.386l.411-.197H57.4zM85.5 42C74.183 42 65 33.065 65 22S74.183 2 85.5 2 106 10.935 106 22s-9.183 20-20.5 20z" stroke-width="4"/><path d="M98.4 39c11.373 0 20.6 9.227 20.6 20.6v4.65c0 5.383-4.367 9.75-9.75 9.75h-46.5C57.367 74 53 69.633 53 64.25V59.6C53 48.227 62.227 39 73.6 39h1.794l.41.196c3.271 1.565 6.69 2.387 10.196 2.387 3.512 0 6.947-.825 10.193-2.386l.411-.197H98.4z" stroke-width="4"/><path d="M112.4 51h-.908c-2.275 1.094-4.801 1.75-7.492 1.75-2.69 0-5.206-.656-7.492-1.75H95.6C88.644 51 83 56.644 83 63.6v3.15A5.251 5.251 0 0 0 88.25 72h31.5a5.251 5.251 0 0 0 5.25-5.25V63.6c0-6.956-5.644-12.6-12.6-12.6z" stroke-width="4"/><path d="M104.5 51.5c-6.604 0-12-5.14-12-11.5s5.396-11.5 12-11.5 12 5.14 12 11.5-5.396 11.5-12 11.5z" stroke-width="3"/><path d="M31.4 51h-.908c-2.275 1.094-4.801 1.75-7.492 1.75-2.69 0-5.206-.656-7.492-1.75H14.6C7.644 51 2 56.644 2 63.6v3.15A5.251 5.251 0 0 0 7.25 72h31.5A5.251 5.251 0 0 0 44 66.75V63.6C44 56.644 38.356 51 31.4 51z" stroke-width="4"/><path d="M23 52c-6.62 0-12-5.38-12-12s5.38-12 12-12 12 5.38 12 12-5.38 12-12 12z" stroke-width="4"/></g></svg>