<?xml version="1.0" encoding="UTF-8"?>
<svg width="127px" height="76px" viewBox="0 0 127 76" version="1.1" xmlns="http://www.w3.org/2000/svg" xmlns:xlink="http://www.w3.org/1999/xlink">
    <!-- Generator: Sketch 57.1 (83088) - https://sketch.com -->
    <title>Group 4</title>
    <desc>Created with Sketch.</desc>
    <g id="Most-Recent" stroke="none" stroke-width="1" fill="none" fill-rule="evenodd">
        <g id="Family-Info-Copy-3" transform="translate(-426.000000, -559.000000)" fill="#5A7931" fill-rule="nonzero" stroke="#FFFFFF">
            <g id="Group-4" transform="translate(428.000000, 563.000000)">
                <path d="M43,39 C31.9347668,39 23,29.8170453 23,18.5 C23,7.18295473 31.9347668,-2 43,-2 C54.0652332,-2 63,7.18295473 63,18.5 C63,29.8170453 54.0652332,39 43,39 Z" id="Icon-Path" stroke-width="4"></path>
                <path d="M55.4,35 C66.7733195,35 76,44.2266805 76,55.6 L76,60.25 C76,65.6332153 71.6332153,70 66.25,70 L19.75,70 C14.3667847,70 10,65.6332153 10,60.25 L10,55.6 C10,44.2266805 19.2266805,35 30.6,35 L32.3939363,35 L32.8033206,35.1958777 C36.0751164,36.7613302 39.4939022,37.5833333 43,37.5833333 C46.5115958,37.5833333 49.946931,36.7582528 53.193307,35.1974952 L53.6040969,35 L55.4,35 Z" id="Icon-Path" stroke-width="4"></path>
                <path d="M83.5,38 C72.1829547,38 63,29.0652332 63,18 C63,6.93476676 72.1829547,-2 83.5,-2 C94.8170453,-2 104,6.93476676 104,18 C104,29.0652332 94.8170453,38 83.5,38 Z" id="Icon-Path-Copy-2" stroke-width="4"></path>
                <path d="M96.4,35 C107.773319,35 117,44.2266805 117,55.6 L117,60.25 C117,65.6332153 112.633215,70 107.25,70 L60.75,70 C55.3667847,70 51,65.6332153 51,60.25 L51,55.6 C51,44.2266805 60.2266805,35 71.6,35 L73.3939363,35 L73.8033206,35.1958777 C77.0751164,36.7613302 80.4939022,37.5833333 84,37.5833333 C87.5115958,37.5833333 90.946931,36.7582528 94.193307,35.1974952 L94.6040969,35 L96.4,35 Z" id="Icon-Path-Copy" stroke-width="4"></path>
                <path d="M110.4,47 L109.492188,47 C107.217187,48.09375 104.690625,48.75 102,48.75 C99.309375,48.75 96.79375,48.09375 94.5078125,47 L93.6,47 C86.64375,47 81,52.64375 81,59.6 L81,62.75 C81,65.6484375 83.3515625,68 86.25,68 L117.75,68 C120.648438,68 123,65.6484375 123,62.75 L123,59.6 C123,52.64375 117.35625,47 110.4,47 Z" id="Icon-Path-Copy-9" stroke-width="4"></path>
                <path d="M102.5,47.5 C95.8960938,47.5 90.5,42.3608631 90.5,36 C90.5,29.6391369 95.8960938,24.5 102.5,24.5 C109.103906,24.5 114.5,29.6391369 114.5,36 C114.5,42.3608631 109.103906,47.5 102.5,47.5 Z" id="Icon-Path" stroke-width="3"></path>
                <path d="M29.4,47 L28.4921875,47 C26.2171875,48.09375 23.690625,48.75 21,48.75 C18.309375,48.75 15.79375,48.09375 13.5078125,47 L12.6,47 C5.64375,47 0,52.64375 0,59.6 L0,62.75 C0,65.6484375 2.3515625,68 5.25,68 L36.75,68 C39.6484375,68 42,65.6484375 42,62.75 L42,59.6 C42,52.64375 36.35625,47 29.4,47 Z" id="Icon-Path-Copy-11" stroke-width="4"></path>
                <path d="M21,48 C14.3798055,48 9,42.6201945 9,36 C9,29.3798055 14.3798055,24 21,24 C27.6201945,24 33,29.3798055 33,36 C33,42.6201945 27.6201945,48 21,48 Z" id="Icon-Path-Copy-10" stroke-width="4"></path>
            </g>
        </g>
    </g>
</svg>