<?xml version="1.0" encoding="UTF-8"?>
<svg width="84px" height="52px" viewBox="0 0 84 52" version="1.1" xmlns="http://www.w3.org/2000/svg" xmlns:xlink="http://www.w3.org/1999/xlink">
    <!-- Generator: Sketch 57.1 (83088) - https://sketch.com -->
    <title>Group 5</title>
    <desc>Created with Sketch.</desc>
    <g id="Most-Recent" stroke="none" stroke-width="1" fill="none" fill-rule="evenodd">
        <g id="Family-Info-Copy-3" transform="translate(-836.000000, -382.000000)" fill="#7A7776" fill-rule="nonzero" stroke="#FFFFFF" stroke-width="4">
            <g id="Group-5" transform="translate(840.000000, 386.000000)">
                <path d="M21.2875,25 C12.8982504,25 6,19.0297363 6,11.5 C6,3.97026374 12.8982504,-2 21.2875,-2 C29.6767496,-2 36.575,3.97026374 36.575,11.5 C36.575,19.0297363 29.6767496,25 21.2875,25 Z" id="Icon-Path-Copy-8"></path>
                <path d="M28.7,23 C36.5626741,23 43,28.9663021 43,36.4 L43,39.25 C43,43.0123438 39.7764762,46 35.875,46 L5.125,46 C1.22352383,46 -2,43.0123438 -2,39.25 L-2,36.4 C-2,28.9663021 4.43732592,23 12.3,23 L13.6097666,23 L13.99697,23.1717088 C16.0848071,24.0975789 18.2646009,24.5833333 20.5,24.5833333 C22.7389135,24.5833333 24.9292528,24.0957618 26.9997765,23.1731551 L27.388373,23 L28.7,23 Z" id="Icon-Path-Copy-7"></path>
                <path d="M57.2875,25 C48.8982504,25 42,19.0297363 42,11.5 C42,3.97026374 48.8982504,-2 57.2875,-2 C65.6767496,-2 72.575,3.97026374 72.575,11.5 C72.575,19.0297363 65.6767496,25 57.2875,25 Z" id="Icon-Path-Copy-6"></path>
                <path d="M64.3,23 C71.8524847,23 78,28.9898867 78,36.4 L78,39.25 C78,42.9887592 74.909516,46 71.125,46 L41.875,46 C38.090484,46 35,42.9887592 35,39.25 L35,36.4 C35,28.9898867 41.1475153,23 48.7,23 L49.9862657,23 L50.3880457,23.18731 C52.3533169,24.1035204 54.401418,24.5833333 56.5,24.5833333 C58.6019033,24.5833333 60.6599072,24.1017268 62.6086211,23.1888677 L63.0118039,23 L64.3,23 Z" id="Icon-Path-Copy-5"></path>
            </g>
        </g>
    </g>
</svg>